<svg width="101" height="67" viewBox="0 0 101 67" fill="none" xmlns="http://www.w3.org/2000/svg">
<path d="M75.25 64L100 34L75.3653 4M25.75 4L1 34L25.75 64" stroke="black" stroke-width="2" stroke-linecap="square" stroke-linejoin="round"/>
<g clip-path="url(#clip0_943_32)">
<path d="M39.9236 41.5938L54.6589 12.3869L69.3781 4.30097L67.5221 21.0395L46.9673 46.3115L45.7322 45.3035L65.9896 20.397L67.4553 7.17559L55.8599 13.547L41.3461 42.3138L39.9236 41.5938Z" fill="#1D1D1B"/>
<path d="M48.1756 52.042L34.632 42.9092L36.2205 40.5502C36.8673 39.5895 38.176 39.3336 39.1382 39.9824L49.1167 46.7112C50.1214 47.3888 50.3882 48.7562 49.7117 49.7609L48.1756 52.042ZM36.8442 42.4787L47.7438 49.8286L48.3896 48.8694C48.5756 48.5933 48.5012 48.2184 48.2265 48.0332L38.248 41.3044C38.0159 41.1479 37.6988 41.2096 37.5425 41.4417L36.8442 42.4787Z" fill="#1D1D1B"/>
<path d="M43.0613 52.7747L35.8253 47.8952C35.0071 47.3435 34.7892 46.2269 35.3401 45.4088L37.166 42.6973L47.4457 49.6291L45.7416 52.2327C45.4587 52.6656 45.0226 52.961 44.5143 53.0625C44.0074 53.1649 43.4897 53.0615 43.0608 52.7722L43.0613 52.7747ZM37.5979 44.9107L36.6622 46.3003C36.6019 46.3899 36.6258 46.5128 36.7155 46.5733L43.9515 51.4527C44.0499 51.5191 44.1506 51.5122 44.1998 51.5027C44.2499 51.4916 44.3434 51.4607 44.4082 51.3613L45.2501 50.073L37.5969 44.9122L37.5979 44.9107Z" fill="#1D1D1B"/>
<path d="M43.1242 43.2296L64.3578 11.9886L44.4611 44.0991L43.1242 43.2296Z" fill="#1D1D1B"/>
<path d="M36.1515 61.0125L30.8398 57.4307L37.7031 47.2383L43.0148 50.8201L36.1515 61.0125ZM33.052 57.0002L35.7196 58.799L40.8026 51.2506L38.135 49.4517L33.052 57.0002Z" fill="#1D1D1B"/>
<path d="M31.7793 62.5776L31.1932 62.1823C29.8462 61.274 29.4882 59.4393 30.3952 58.0923L31.7305 56.1094L37.0422 59.6912L35.5991 61.8343C34.7514 63.0931 33.0382 63.4265 31.7793 62.5776ZM32.1623 58.3228L31.7172 58.9838C31.3008 59.6022 31.4649 60.4433 32.0834 60.8604L32.6695 61.2556C33.1998 61.6132 33.92 61.473 34.277 60.9428L34.8299 60.1217L32.1623 58.3228Z" fill="#1D1D1B"/>
<path d="M38.5105 48.1575L37.3281 48.5293L39.1767 54.4009L40.359 54.0291L38.5105 48.1575Z" fill="#1D1D1B"/>
<path d="M36.3639 51.3082L35.2012 51.7373L37.2562 57.3007L38.4189 56.8715L36.3639 51.3082Z" fill="#1D1D1B"/>
<path d="M34.4369 54.2084L33.2539 54.5781L34.7123 59.2387L35.8953 58.869L34.4369 54.2084Z" fill="#1D1D1B"/>
</g>
<defs>
<clipPath id="clip0_943_32">
<rect width="16.7711" height="69.3388" fill="white" transform="matrix(0.829107 0.55909 -0.558549 0.829472 63 0)"/>
</clipPath>
</defs>
</svg>
